# xmcd
#
# Track frame offsets:
#	150
#	15300
#	31212
#	45229
#	58185
#	73094
#	86547
#	102125
#	116532
#	132442
#	145034
#	159768
#	175079
#	189604
#	202920
#	219264
#	234829
#	250591
#	266116
#	279714
#	294131
#
# Disc length: 4108 seconds
#
# Revision: 3
# Processed by: cddbd v1.5.2PL0 Copyright (c) Steve Scherf et al.
# Submitted via: dBpowerAMP V4.0
#
DISCID=16100a15
DTITLE=Various Artist - Hott Country Volume 265 Can
DYEAR=2018
DGENRE=Country
TTITLE0=Cole Swindell - Break Up In The End
TTITLE1=Jess Moskaluke - Past The Past
TTITLE2=Chris Young - Hangin' On
TTITLE3=Washboard Union, The  - What We're Made Of
TTITLE4=Eric Paslay - Young Forever
TTITLE5=Dan Davidson - Let's Go There
TTITLE6=Reklaws, The  - Long Live The Night
TTITLE7=Kelsea Ballerini - I Hate Love Songs
TTITLE8=Ben Klick - Middle Of Nowhere
TTITLE9=Tebey - Denim On Denim
TTITLE10=Jimmie Allen - Best Shot
TTITLE11=Shawn Austin - Get Me There
TTITLE12=Aaron Watson - Run Wild Horses
TTITLE13=River Town Saints - You Get To Me
TTITLE14=Emerson Drive - The Road
TTITLE15=Lucas Hoge - Power Of Garth
TTITLE16=Carly Pearce - Hide The Wine
TTITLE17=Thomas Rhett - Marry Me
TTITLE18=Logan Staats - The Lucky Ones
TTITLE19=Leah Daniels - 1st
TTITLE20=Genevieve Fisher - Between You And Me
EXTD=
EXTT0=
EXTT1=
EXTT2=
EXTT3=
EXTT4=
EXTT5=
EXTT6=
EXTT7=
EXTT8=
EXTT9=
EXTT10=
EXTT11=
EXTT12=
EXTT13=
EXTT14=
EXTT15=
EXTT16=
EXTT17=
EXTT18=
EXTT19=
EXTT20=
PLAYORDER=
